<svg xmlns="http://www.w3.org/2000/svg" width="2307" height="713" viewBox="0 0 2307 713" role="img" aria-labelledby="title desc">
<title id="title">momention logo</title><desc id="desc">Stacked transparent vector logo with the symbol above the momention wordmark.</desc>
<g id="stacked-wordmark" transform="matrix(0.2646735 0 0 0.2646735 843.34 541.5)">
<g id="wordmark" fill="none" stroke="#F2F2F2" stroke-width="29" stroke-linecap="butt" stroke-linejoin="round">
<path id="m-initial" transform="matrix(1.536481 0 0 1.37931 -169.013 -203.793)" d="M124.5 300V235A51 51 0 0 1 226.5 235V300 M226.5 235A51 51 0 0 1 328.5 235V300"/>
<circle id="o" transform="matrix(1.533333 0 0 1.533333 -119.067 -230)" cx="409" cy="225" r="60.5"/><path id="m-second" transform="matrix(1.536481 0 0 1.37931 -101.022 -203.793)" d="M508.5 300V235A51 51 0 0 1 610.5 235V300 M610.5 235A51 51 0 0 1 712.5 235V300"/>
<path id="n" transform="matrix(1.538462 0 0 1.372414 -63.498 -201.624)" d="M886.474 300V235A50.5 50.5 0 0 1 987.474 235V300"/>
<circle id="o-final" transform="matrix(1.533333 0 0 1.533333 1260.933 -230)" cx="409" cy="225" r="60.5"/>
<path id="n-final" transform="matrix(1.538462 0 0 1.372414 3.671 -201.624)" d="M1337.114 300V235A50.5 50.5 0 0 1 1438.114 235V300"/></g>
<g id="outfit-outlines" fill="#F2F2F2" fill-rule="nonzero"><path id="e" transform="matrix(1.53632 0 0 1.534351 -81.268 -230.306)" d="M801.4520263671875,195.46200561523438L796.130126953125,195.7567596435547 791.1685180664062,196.64100646972656 786.567138671875,198.11476135253906 782.3259887695312,200.17800903320312 778.4942626953125,202.77345275878906 775.1210327148438,205.84375 772.2062377929688,209.38894653320312 769.75,213.40899658203125 766.7963256835938,221.66201782226562 832.5592041015625,221.66201782226562 830.2720336914062,211.7060089111328 828.102294921875,208.0052490234375 825.5232543945312,204.76300048828125 822.5347900390625,201.979248046875 819.1370239257812,199.6540069580078 815.329833984375,197.82000732421875 811.11328125,196.510009765625 806.4873046875,195.7239990234375 801.4520263671875,195.46200561523438z M801.9760131835938,169L810.4992065429688,169.50762939453125 818.5147705078125,171.03050231933594 826.022705078125,173.56863403320312 833.0230102539062,177.12200927734375 839.4092407226562,181.55963134765625 845.0750122070312,186.75051879882812 850.020263671875,192.69464111328125 854.2449951171875,199.39199829101562 857.62646484375,206.7116241455078 860.041748046875,214.5225067138672 861.490966796875,222.8246307373047 861.9739990234375,231.61801147460938 861.5809936523438,238.03700256347656 860.4019775390625,245.24200439453125 766.6434326171875,245.24200439453125 770.0120239257812,254.41200256347656 772.6156616210938,258.6121826171875 775.7105102539062,262.30474853515625 779.296630859375,265.48968505859375 783.3740234375,268.1669921875 787.8607788085938,270.2875671386719 792.6749877929688,271.80224609375 797.8167724609375,272.7110595703125 803.2860107421875,273.0140075683594 808.04296875,272.8011169433594 812.6197509765625,272.1625061035156 817.0164794921875,271.0981140136719 821.2330322265625,269.6080017089844 825.2039184570312,267.70849609375 828.86376953125,265.416015625 832.2124633789062,262.7304992675781 835.25,259.6520080566406 853.5900268554688,278.2539978027344 848.7593994140625,283.2975158691406 843.4375,287.6860046386719 837.6243896484375,291.4195251464844 831.3200073242188,294.4980163574219 824.6717529296875,296.9051513671875 817.8270263671875,298.62451171875 810.7857666015625,299.6561279296875 803.5480346679688,300 794.3534545898438,299.4678039550781 785.6337890625,297.8712463378906 777.3889770507812,295.2103271484375 769.6190185546875,291.4850158691406 762.4794921875,286.8263244628906 756.1260375976562,281.3652648925781 750.5585327148438,275.101806640625 745.7770385742188,268.0360107421875 741.9370727539062,260.3397521972656 739.1942749023438,252.1850128173828 737.548583984375,243.57174682617188 737,234.5 737.5404052734375,225.4364471435547 739.1614990234375,216.84776306152344 741.8634033203125,208.73394775390625 745.64599609375,201.09500122070312 750.3538208007812,194.0783233642578 755.8312377929688,187.8312530517578 762.0783081054688,182.35382080078125 769.0950317382812,177.64599609375 776.7012329101562,173.86337280273438 784.716796875,171.1614990234375 793.1417236328125,169.54037475585938 801.9760131835938,169z"/><path id="t" transform="matrix(1.537943 0 0 1.53233 -44.808 -229.701)" d="M1043.10400390625,121.83999633789062L1071.9239501953125,121.83999633789062 1071.9239501953125,174.24000549316406 1102.053955078125,174.24000549316406 1102.053955078125,200.44000244140625 1071.9239501953125,200.44000244140625 1071.9239501953125,300 1043.10400390625,300 1043.10400390625,200.44000244140625 1012.9739990234375,200.44000244140625 1012.9739990234375,174.24000549316406 1043.10400390625,174.24000549316406 1043.10400390625,121.83999633789062z"/><path id="i" transform="matrix(1.556078 0 0 1.53217 -45.582 -229.657)" d="M1114.674072265625,174.24000549316406L1143.4940185546875,174.24000549316406 1143.4940185546875,300 1114.674072265625,300 1114.674072265625,174.24000549316406z M1129.0841064453125,116.60000610351562L1132.7030029296875,116.9111328125 1135.9615478515625,117.8445053100586 1138.8599853515625,119.40013122558594 1141.3980712890625,121.5780029296875 1143.4613037109375,124.2143783569336 1144.93505859375,127.1455078125 1145.8192138671875,130.3713836669922 1146.114013671875,133.89199829101562 1145.8192138671875,137.41262817382812 1144.93505859375,140.6385040283203 1143.4613037109375,143.5696258544922 1141.3980712890625,146.2060089111328 1138.8599853515625,148.38389587402344 1135.9615478515625,149.93951416015625 1132.7030029296875,150.87289428710938 1129.0841064453125,151.1840057373047 1125.5716552734375,150.87289428710938 1122.3702392578125,149.93951416015625 1119.4801025390625,148.38389587402344 1116.9010009765625,146.2060089111328 1114.7803955078125,143.5696258544922 1113.2657470703125,140.6385040283203 1112.3570556640625,137.41262817382812 1112.0540771484375,133.89199829101562 1112.3570556640625,130.3713836669922 1113.2657470703125,127.1455078125 1114.7803955078125,124.2143783569336 1116.9010009765625,121.5780029296875 1119.4801025390625,119.40013122558594 1122.3702392578125,117.8445053100586 1125.5716552734375,116.9111328125 1129.0841064453125,116.60000610351562z"/></g>
</g>
<g id="symbol"><path id="yellow-arch" d="M979 440V270A182 182 0 0 1 1343 270V440" fill="none" stroke="#F2C80F" stroke-width="52" stroke-linecap="round" stroke-linejoin="round"/>
<circle id="red-ring" cx="1161" cy="270" r="111" fill="none" stroke="#E04747" stroke-width="52"/><circle id="red-center" cx="1161" cy="270" r="45" fill="#E04747"/><circle id="blue-dot" cx="1309.5" cy="122" r="49" fill="#3F7BDA"/></g></svg>
